<svg id="visual" viewBox="0 0 900 600" width="900" height="600" xmlns="http://www.w3.org/2000/svg" xmlns:xlink="http://www.w3.org/1999/xlink" version="1.1"><rect x="0" y="0" width="900" height="600" fill="#ffffff"></rect><defs><linearGradient id="grad1_0" x1="33.3%" y1="0%" x2="100%" y2="100%"><stop offset="20%" stop-color="#ffffff" stop-opacity="1"></stop><stop offset="80%" stop-color="#ffffff" stop-opacity="1"></stop></linearGradient></defs><defs><linearGradient id="grad2_0" x1="0%" y1="0%" x2="66.7%" y2="100%"><stop offset="20%" stop-color="#ffffff" stop-opacity="1"></stop><stop offset="80%" stop-color="#ffffff" stop-opacity="1"></stop></linearGradient></defs><g transform="translate(900, 0)"><path d="M0 486.7C-70.3 486.5 -140.7 486.2 -186.3 449.7C-231.8 413.2 -252.7 340.6 -292.7 292.7C-332.8 244.9 -392.2 221.8 -427.8 177.2C-463.3 132.5 -475 66.3 -486.7 0L0 0Z" fill="#715DF2"></path></g><g transform="translate(0, 600)"><path d="M0 -486.7C64.3 -480.9 128.5 -475 186.3 -449.7C244 -424.4 295.2 -379.8 329.5 -329.5C363.8 -279.3 381.3 -223.5 404.7 -167.6C428.1 -111.8 457.4 -55.9 486.7 0L0 0Z" fill="#715DF2"></path></g></svg>