<svg id="visual" viewBox="0 0 900 600" width="900" height="600" xmlns="http://www.w3.org/2000/svg" xmlns:xlink="http://www.w3.org/1999/xlink" version="1.1"><rect x="0" y="0" width="900" height="600" fill="#001122"></rect><path d="M0 434L21.5 428C43 422 86 410 128.8 402.7C171.7 395.3 214.3 392.7 257.2 394.7C300 396.7 343 403.3 385.8 413C428.7 422.7 471.3 435.3 514.2 434.8C557 434.3 600 420.7 642.8 420.2C685.7 419.7 728.3 432.3 771.2 431.5C814 430.7 857 416.3 878.5 409.2L900 402L900 601L878.5 601C857 601 814 601 771.2 601C728.3 601 685.7 601 642.8 601C600 601 557 601 514.2 601C471.3 601 428.7 601 385.8 601C343 601 300 601 257.2 601C214.3 601 171.7 601 128.8 601C86 601 43 601 21.5 601L0 601Z" fill="#0066ff"></path><path d="M0 413L21.5 419.7C43 426.3 86 439.7 128.8 443.8C171.7 448 214.3 443 257.2 447.5C300 452 343 466 385.8 463.2C428.7 460.3 471.3 440.7 514.2 436.5C557 432.3 600 443.7 642.8 452.8C685.7 462 728.3 469 771.2 470.2C814 471.3 857 466.7 878.5 464.3L900 462L900 601L878.5 601C857 601 814 601 771.2 601C728.3 601 685.7 601 642.8 601C600 601 557 601 514.2 601C471.3 601 428.7 601 385.8 601C343 601 300 601 257.2 601C214.3 601 171.7 601 128.8 601C86 601 43 601 21.5 601L0 601Z" fill="#007aff"></path><path d="M0 478L21.5 482.8C43 487.7 86 497.3 128.8 490.5C171.7 483.7 214.3 460.3 257.2 452.3C300 444.3 343 451.7 385.8 458C428.7 464.3 471.3 469.7 514.2 473.5C557 477.3 600 479.7 642.8 483.8C685.7 488 728.3 494 771.2 494.8C814 495.7 857 491.3 878.5 489.2L900 487L900 601L878.5 601C857 601 814 601 771.2 601C728.3 601 685.7 601 642.8 601C600 601 557 601 514.2 601C471.3 601 428.7 601 385.8 601C343 601 300 601 257.2 601C214.3 601 171.7 601 128.8 601C86 601 43 601 21.5 601L0 601Z" fill="#008cff"></path><path d="M0 507L21.5 512.7C43 518.3 86 529.7 128.8 530.2C171.7 530.7 214.3 520.3 257.2 517.7C300 515 343 520 385.8 520.2C428.7 520.3 471.3 515.7 514.2 511.3C557 507 600 503 642.8 500.5C685.7 498 728.3 497 771.2 498.5C814 500 857 504 878.5 506L900 508L900 601L878.5 601C857 601 814 601 771.2 601C728.3 601 685.7 601 642.8 601C600 601 557 601 514.2 601C471.3 601 428.7 601 385.8 601C343 601 300 601 257.2 601C214.3 601 171.7 601 128.8 601C86 601 43 601 21.5 601L0 601Z" fill="#2b9dfc"></path><path d="M0 553L21.5 552C43 551 86 549 128.8 551.5C171.7 554 214.3 561 257.2 560.2C300 559.3 343 550.7 385.8 544.5C428.7 538.3 471.3 534.7 514.2 538.3C557 542 600 553 642.8 551.8C685.7 550.7 728.3 537.3 771.2 537.7C814 538 857 552 878.5 559L900 566L900 601L878.5 601C857 601 814 601 771.2 601C728.3 601 685.7 601 642.8 601C600 601 557 601 514.2 601C471.3 601 428.7 601 385.8 601C343 601 300 601 257.2 601C214.3 601 171.7 601 128.8 601C86 601 43 601 21.5 601L0 601Z" fill="#4facf7"></path></svg>